<svg width="80" height="80" viewBox="0 0 80 80" fill="none" xmlns="http://www.w3.org/2000/svg">
<path d="M33.3336 59.9999C37.0154 59.9999 40.0001 57.0152 40.0001 53.3333V46.6667H33.3336C29.6517 46.6667 26.667 49.6515 26.667 53.3333C26.667 57.0152 29.6517 59.9999 33.3336 59.9999Z" fill="#F9F8F1" stroke="#1770DC" stroke-width="2"/>
<path d="M26.667 39.9998C26.667 36.318 29.6517 33.3333 33.3336 33.3333H40.0001V46.6664H33.3336C29.6517 46.6664 26.667 43.6817 26.667 39.9998Z" fill="#F9F8F1" stroke="#1770DC" stroke-width="2"/>
<path d="M26.667 26.6666C26.667 22.9847 29.6517 20 33.3336 20H40.0001V33.3331H33.3336C29.6517 33.3331 26.667 30.3484 26.667 26.6666Z" fill="#F9F8F1" stroke="#1770DC" stroke-width="2"/>
<path d="M39.999 20H46.6656C50.3474 20 53.3322 22.9847 53.3322 26.6666C53.3322 30.3484 50.3474 33.3331 46.6656 33.3331H39.999V20Z" fill="#F9F8F1" stroke="#1770DC" stroke-width="2"/>
<path d="M53.3322 40.0003C53.3322 43.6822 50.3474 46.6669 46.6656 46.6669C42.9837 46.6669 39.999 43.6822 39.999 40.0003C39.999 36.3185 42.9837 33.3337 46.6656 33.3337C50.3474 33.3337 53.3322 36.3185 53.3322 40.0003Z" fill="#F9F8F1" stroke="#1770DC" stroke-width="2"/>
</svg>
