<svg width="80" height="80" viewBox="0 0 80 80" fill="none" xmlns="http://www.w3.org/2000/svg">
<path d="M16.6006 56.3981V23.0509C16.6006 22.8241 16.6978 22.6944 16.9247 22.6944C17.4756 22.6944 17.9941 22.6944 18.7395 22.662C19.4848 22.6296 20.3274 22.6296 21.2024 22.5972C22.0774 22.5648 23.0172 22.5648 24.0219 22.5324C25.0265 22.5 25.9987 22.5 26.9709 22.5C29.6283 22.5 31.832 22.8241 33.6468 23.5046C35.2737 24.0571 36.7571 24.9649 37.9894 26.162C39.0337 27.2097 39.8405 28.4696 40.3552 29.8565C40.8457 31.207 41.0979 32.6325 41.1005 34.0694C41.1005 36.8565 40.4524 39.1574 39.1561 40.9722C37.8538 42.7845 36.0355 44.1623 33.9385 44.9259C31.7348 45.7361 29.3043 46.0277 26.6469 46.0277C25.8691 46.0277 25.3506 46.0277 25.0265 45.9953C24.7024 45.9629 24.2487 45.9629 23.633 45.9629V56.3657C23.6402 56.419 23.6367 56.4732 23.6225 56.5252C23.6084 56.5771 23.584 56.6257 23.5508 56.668C23.5175 56.7103 23.4761 56.7455 23.429 56.7715C23.3819 56.7975 23.33 56.8138 23.2765 56.8194H16.9895C16.7302 56.8194 16.6006 56.6897 16.6006 56.3981ZM23.6654 28.9491V39.8379C24.1191 39.8703 24.5404 39.9027 24.9293 39.9027H26.6469C27.912 39.9043 29.1695 39.7074 30.3737 39.3194C31.4068 39.0156 32.3298 38.419 33.0311 37.6018C33.7117 36.7916 34.0357 35.6898 34.0357 34.2639C34.0662 33.2512 33.8077 32.2507 33.2904 31.3796C32.75 30.5382 31.9553 29.8911 31.0219 29.5324C29.8052 29.0559 28.5035 28.8353 27.1978 28.8842C26.3552 28.8842 25.6098 28.8842 24.9941 28.9167C24.5511 28.8877 24.1064 28.8985 23.6654 28.9491V28.9491Z" fill="#F9F8F1"/>
<path d="M61.322 37.8609C60.3435 37.3456 59.2956 36.9744 58.2109 36.7591C57.0196 36.4893 55.8028 36.348 54.5813 36.3378C53.9254 36.3152 53.2699 36.3916 52.6369 36.5646C52.2332 36.6486 51.8751 36.8796 51.6322 37.2128C51.4685 37.4757 51.3789 37.7781 51.373 38.0878C51.388 38.3961 51.5016 38.6914 51.697 38.9304C52.0042 39.2906 52.3784 39.5878 52.7989 39.8054C53.5443 40.1943 54.322 40.5507 55.0998 40.8748C56.8507 41.4642 58.5259 42.2583 60.0905 43.2405C61.1548 43.9097 62.0349 44.8344 62.6507 45.9303C63.1715 46.9642 63.4276 48.1111 63.3961 49.2683C63.4224 50.8001 62.9815 52.3035 62.1322 53.5785C61.2283 54.8721 59.967 55.8744 58.5026 56.4627C56.9146 57.1433 54.9702 57.4998 52.6369 57.4998C51.1574 57.5057 49.681 57.3646 48.2295 57.0785C47.0865 56.881 45.9749 56.5322 44.9239 56.0414C44.8109 55.9847 44.717 55.8963 44.6536 55.7869C44.5903 55.6775 44.5603 55.5519 44.5674 55.4257V49.7868C44.5646 49.7314 44.5749 49.6762 44.5974 49.6255C44.6199 49.5748 44.6541 49.5302 44.6971 49.4952C44.7427 49.4686 44.7957 49.4573 44.8482 49.4632C44.9008 49.469 44.95 49.4916 44.9887 49.5276C46.2371 50.2635 47.593 50.7993 49.0072 51.1155C50.2559 51.4404 51.5411 51.6038 52.8313 51.6016C54.0628 51.6016 54.9378 51.4396 55.5211 51.1479C55.7813 51.0277 56.0018 50.8359 56.1568 50.5948C56.3118 50.3537 56.3948 50.0734 56.3961 49.7868C56.3961 49.3331 56.1368 48.9118 55.6183 48.4905C55.0998 48.0692 54.0304 47.5831 52.4424 46.9674C50.8134 46.3934 49.2663 45.609 47.8406 44.6341C46.8251 43.9103 45.9837 42.9693 45.3776 41.8794C44.8604 40.8559 44.6044 39.7203 44.6322 38.5739C44.637 37.191 45.0179 35.8355 45.7341 34.6526C46.5573 33.3516 47.739 32.3163 49.1369 31.6711C50.66 30.8933 52.572 30.5369 54.873 30.5369C56.2177 30.5372 57.5607 30.6347 58.8915 30.8285C59.8483 30.958 60.7848 31.2085 61.6785 31.5739C61.8209 31.6244 61.9374 31.7293 62.0026 31.8656C62.0399 31.9921 62.0617 32.1227 62.0674 32.2545V37.5368C62.0679 37.5998 62.0535 37.662 62.0253 37.7184C61.9972 37.7747 61.956 37.8235 61.9054 37.8609C61.7168 37.9287 61.5106 37.9287 61.322 37.8609Z" fill="#F9F8F1"/>
</svg>
