<svg width="64" height="64" viewBox="0 0 64 64" fill="none" xmlns="http://www.w3.org/2000/svg">
<path fill-rule="evenodd" clip-rule="evenodd" d="M45.0994 16.0007H18.9006C18.1313 16.0007 17.3935 16.3063 16.8496 16.8502C16.3056 17.3942 16 18.132 16 18.9013V45.0994C16 45.8687 16.3056 46.6065 16.8496 47.1504C17.3935 47.6944 18.1313 48 18.9006 48H45.0987C45.868 48 46.6058 47.6944 47.1498 47.1504C47.6937 46.6065 47.9993 45.8687 47.9993 45.0994V18.9006C47.9993 18.1313 47.6937 17.3935 47.1498 16.8496C46.6058 16.3056 45.868 16 45.0987 16L45.0994 16.0007ZM26.6951 26.0685C27.7584 26.0685 28.6497 25.2351 28.6497 24.1418C28.6497 23.0499 27.7584 22.2165 26.6951 22.2165C25.6311 22.2165 24.7405 23.0499 24.7405 24.1418C24.7405 25.2351 25.6311 26.0685 26.6951 26.0685ZM22.6419 36.3836C22.531 36.8579 22.4729 37.3431 22.4685 37.8302C22.4685 39.5268 23.3885 40.6528 25.3438 40.6528C26.9651 40.6528 28.2797 39.6902 29.2257 38.1355L28.6477 40.4548H31.8677L33.7076 33.075C34.1676 31.2063 35.0583 30.2364 36.4096 30.2364C37.4729 30.2364 38.1342 30.8977 38.1342 31.9897C38.1342 32.3063 38.1055 32.651 37.9902 33.025L37.0416 36.4169C36.9065 36.884 36.8389 37.368 36.8409 37.8542C36.8409 39.4648 37.7889 40.6422 39.7728 40.6422C41.4688 40.6422 42.8194 39.5508 43.5674 36.9342L42.3028 36.4462C41.6695 38.1989 41.1235 38.5155 40.6928 38.5155C40.2615 38.5155 40.0315 38.2289 40.0315 37.6535C40.0315 37.3949 40.0888 37.1082 40.1748 36.7622L41.0948 33.4576C41.3248 32.6817 41.4115 31.9937 41.4115 31.361C41.4115 28.8891 39.9162 27.5991 38.1049 27.5991C36.4096 27.5991 34.6849 29.1284 33.8223 30.739L34.4543 27.8491H29.5391L28.8491 30.3944H31.149L29.733 36.0642C28.6204 38.5362 26.5778 38.5762 26.3211 38.5189C25.9005 38.4242 25.6311 38.2642 25.6311 37.7169C25.6311 37.4016 25.6885 36.9482 25.8325 36.4016L27.9884 27.8484H22.5265L21.8365 30.3944H24.1078L22.6419 36.3836Z" fill="#F9F8F1"/>
</svg>
