<svg width="80" height="80" viewBox="0 0 80 80" fill="none" xmlns="http://www.w3.org/2000/svg">
<path d="M29.4315 25.497V56.5302C29.4315 56.8629 29.2761 57.0141 28.9964 57.0141H22.9041C22.6243 57.0141 22.5 56.8629 22.5 56.5302V25.497C22.5 25.2248 22.6554 25.1038 22.9352 25.1038H28.9964C29.0435 25.0966 29.0916 25.0987 29.1378 25.1102C29.1841 25.1217 29.2274 25.1422 29.2652 25.1705C29.303 25.1988 29.3345 25.2343 29.3578 25.2748C29.381 25.3154 29.3955 25.3601 29.4004 25.4062C29.4122 25.4182 29.4211 25.4325 29.4264 25.4482C29.4318 25.4639 29.4335 25.4806 29.4315 25.497V25.497Z" fill="#F9F8F1"/>
<path d="M47.3352 57.498C45.0312 57.5348 42.7478 57.0697 40.6523 56.1369C38.7027 55.2497 37.0688 53.8177 35.9588 52.0233C34.8087 50.1783 34.2492 47.8795 34.2492 45.127C34.2177 42.8887 34.8084 40.6836 35.9588 38.745C37.1384 36.7747 38.8469 35.154 40.901 34.0567C43.0768 32.8771 45.6878 32.3024 48.765 32.3024C48.983 32.3 49.201 32.3101 49.4178 32.3327C49.6975 32.3629 50.0083 32.3629 50.3813 32.3932V22.8352C50.3813 22.6234 50.4746 22.5025 50.6922 22.5025H57.002C57.0717 22.4933 57.1424 22.51 57.2 22.5492C57.2576 22.5884 57.2979 22.6473 57.3128 22.7142V51.5696C57.3128 52.114 57.3439 52.719 57.375 53.3844C57.4061 54.0498 57.4683 54.6245 57.4993 55.1387C57.506 55.2409 57.4796 55.3425 57.4238 55.4293C57.3681 55.5161 57.2858 55.5837 57.1885 55.6227C55.5604 56.2885 53.8611 56.7755 52.122 57.0745C50.5424 57.3531 48.9405 57.4948 47.3352 57.498ZM50.3813 51.4486V38.14C50.1046 38.075 49.8244 38.0246 49.5421 37.9888C49.2002 37.9586 48.8583 37.9283 48.5164 37.9283C47.298 37.915 46.0939 38.1845 45.004 38.7147C43.9418 39.2297 43.0324 40.0002 42.3619 40.953C41.6781 41.9209 41.3362 43.2215 41.3362 44.7943C41.3091 45.8559 41.4884 46.9129 41.8646 47.9097C42.1652 48.7159 42.6425 49.4486 43.2633 50.0573C43.8626 50.6138 44.586 51.0278 45.377 51.2671C46.2096 51.5325 47.0808 51.6653 47.9569 51.6603C48.4231 51.6603 48.8583 51.6301 49.2623 51.5999C49.6422 51.6283 50.0239 51.5768 50.3813 51.4486V51.4486Z" fill="#F9F8F1"/>
</svg>
