<svg width="64" height="64" viewBox="0 0 64 64" fill="none" xmlns="http://www.w3.org/2000/svg">
<path d="M40.1411 22.1333L34.8632 16L39.5544 16.8555L40.1411 22.1333ZM40.0621 26.6667L32.0003 48L23.9405 26.6667H40.0621ZM24.6509 24.5333L32.0003 16L39.3496 24.5333H24.6509ZM23.1491 22.9995L22.5048 17.8304L28.9645 16L23.1491 22.9995ZM21.1928 24.5333H14.9336L20.5464 19.3643L21.1928 24.5333ZM21.66 26.6667L28.3885 44.6059L14.9336 26.6667H21.66ZM42.3384 26.6667H49.0669L35.612 44.608L42.3384 26.6667ZM42.556 24.5333L41.9053 18.6688L49.0669 24.5333H42.556Z" fill="#F9F8F1"/>
</svg>
