<svg width="64" height="64" viewBox="0 0 64 64" fill="none" xmlns="http://www.w3.org/2000/svg">
<path d="M10.0012 43.3574V20.6206C9.99472 20.5533 10.014 20.486 10.0553 20.4324C10.0965 20.3788 10.1566 20.3429 10.2233 20.332H10.2455C10.5785 20.3098 11.0892 20.2876 11.7331 20.2876C12.3771 20.2876 13.1542 20.2654 14.0423 20.2432C14.9305 20.2209 15.8631 20.2209 16.8622 20.2209C19.5711 20.2209 21.8359 20.7094 23.6122 21.6864C25.3217 22.5965 26.721 23.9958 27.6311 25.7053C28.5193 27.415 28.9633 29.3689 28.9633 31.5893C28.9917 33.1345 28.759 34.6734 28.275 36.1411C27.8518 37.3876 27.2047 38.5464 26.3655 39.5605C25.5848 40.4902 24.6632 41.2918 23.6344 41.9363C22.6206 42.5595 21.5209 43.0308 20.3704 43.3351C19.254 43.6273 18.1051 43.7766 16.951 43.7792H14.442C13.5539 43.7792 12.7101 43.7792 11.9552 43.757C11.2003 43.7348 10.6007 43.7348 10.2233 43.7126C10.0679 43.7126 10.0012 43.5794 10.0012 43.3574ZM14.6863 24.6173V39.4273C14.9305 39.4273 15.1525 39.4273 15.3746 39.4495C15.5966 39.4717 15.7964 39.4717 15.9963 39.4939C16.1961 39.5161 16.4626 39.5161 16.729 39.5161C17.7585 39.5344 18.7825 39.3613 19.7487 39.0054C20.6339 38.6928 21.4328 38.1754 22.0801 37.4955C22.7448 36.7885 23.2519 35.9485 23.5678 35.0309C23.9227 33.9564 24.1026 32.8319 24.1007 31.7003C24.121 30.6345 23.948 29.5738 23.59 28.5696C23.2837 27.7142 22.7804 26.9429 22.1208 26.318C21.4612 25.6931 20.6638 25.2322 19.7931 24.9726C18.8447 24.6774 17.8554 24.535 16.8622 24.5507C16.4182 24.5507 16.0407 24.5507 15.7298 24.5729C15.419 24.5951 15.0637 24.5951 14.6863 24.6173V24.6173Z" fill="#F9F8F1"/>
<path d="M48.8583 43.7128H44.7062C44.6579 43.7205 44.6085 43.7164 44.5621 43.7009C44.5157 43.6855 44.4737 43.6591 44.4397 43.6239C44.378 43.5449 44.3327 43.4543 44.3065 43.3575C43.8846 41.5812 43.5294 39.9825 43.2407 38.6281C42.9521 37.2736 42.7078 36.0968 42.5302 35.1421C42.3526 34.1873 42.1971 33.388 42.0639 32.7219C41.9307 32.0557 41.8419 31.5006 41.7753 31.0344H41.7531C41.531 32.0113 41.3312 32.9661 41.1313 33.8765C40.9315 34.7868 40.7317 35.7194 40.5096 36.6519C40.2876 37.5845 40.0434 38.6059 39.7547 39.7161C39.4661 40.8263 39.1774 42.0475 38.8444 43.3575C38.7999 43.6017 38.6889 43.7128 38.4891 43.7128H34.337C34.2288 43.7253 34.1196 43.7019 34.0261 43.6461C33.9617 43.5735 33.9092 43.491 33.8707 43.4019L29.5409 26.2383C29.4743 26.0385 29.5631 25.9497 29.8074 25.9497H34.0039C34.2037 25.9497 34.3148 26.0163 34.337 26.1717C34.781 28.1257 35.1585 29.8132 35.4472 31.2342C35.7358 32.6552 35.9801 33.8543 36.1355 34.8534C36.2909 35.8526 36.4463 36.6741 36.5574 37.2958C36.6684 37.9176 36.7572 38.4504 36.8238 38.8501H36.8904C36.9348 38.4949 36.9792 38.1618 37.0458 37.8065C37.1347 37.3847 37.2457 36.8296 37.3789 36.1412C37.5121 35.4529 37.6676 34.6536 37.8674 33.721C38.0672 32.7885 38.2893 31.7227 38.5557 30.4793C38.8221 29.2359 39.1552 27.8592 39.5771 26.2827C39.5861 26.1813 39.6163 26.083 39.6659 25.9941C39.6881 25.9497 39.7769 25.9275 39.9101 25.9275H44.2621C44.3953 25.9275 44.4619 26.0163 44.4841 26.1717C44.8616 27.7926 45.1724 29.2136 45.4389 30.4349C45.7053 31.6561 45.9052 32.7441 46.105 33.6988C46.3048 34.6536 46.4381 35.4529 46.5269 36.119C46.6157 36.7852 46.7267 37.3625 46.8155 37.8287C46.8891 38.2029 46.941 38.581 46.971 38.9611H47.0376C47.1486 38.5171 47.2374 37.9842 47.3262 37.3847C47.415 36.7852 47.5261 36.119 47.6815 35.3641C47.8369 34.6092 47.9701 33.7876 48.1478 32.8773C48.3254 31.9669 48.5252 30.9678 48.7695 29.8354C49.0137 28.703 49.2802 27.504 49.591 26.1939C49.6354 25.9941 49.7242 25.9053 49.8797 25.9053H53.7653C53.9652 25.9053 54.0318 26.0163 53.9874 26.2161L49.1913 43.3353C49.1696 43.4271 49.1235 43.5115 49.0581 43.5795C49.0581 43.6906 48.9693 43.735 48.8583 43.7128Z" fill="#F9F8F1"/>
</svg>
