<svg width="64" height="64" viewBox="0 0 64 64" fill="none" xmlns="http://www.w3.org/2000/svg">
<path fill-rule="evenodd" clip-rule="evenodd" d="M36.3305 16.073L18.5707 17.3798C17.1387 17.5038 16.6396 18.4373 16.6396 19.5565V38.967C16.6396 39.8391 16.9507 40.5845 17.6988 41.5808L21.8737 46.9934C22.5594 47.865 23.1826 48.0514 24.492 47.989L45.1163 46.7445C46.8607 46.6207 47.3596 45.8113 47.3596 44.4427V22.6053C47.3596 21.8978 47.0795 21.6934 46.2537 21.091C46.2083 21.0579 46.1611 21.0236 46.1124 20.9878L40.4433 17.0063C39.0725 16.0113 38.5114 15.8861 36.3305 16.073ZM24.9596 22.2471C23.2758 22.3607 22.8932 22.3866 21.9369 21.6102L19.5052 19.6817C19.2572 19.4323 19.3816 19.1213 20.0043 19.0595L37.0784 17.8151C38.5111 17.6905 39.2587 18.189 39.8198 18.6242L42.7483 20.7397C42.873 20.8017 43.1841 21.1745 42.81 21.1745L25.177 22.2325L24.9596 22.2471ZM22.9956 44.2557V25.7166C22.9956 24.9079 23.2449 24.5344 23.9922 24.4716L44.2431 23.2899C44.93 23.2277 45.241 23.6636 45.241 24.4716V42.8864C45.241 43.6958 45.116 44.381 43.994 44.4427L24.6154 45.5632C23.4939 45.6248 22.9956 45.252 22.9956 44.2557ZM42.1262 26.711C42.2504 27.2716 42.1261 27.8315 41.5642 27.8945L40.6305 28.0804V41.7671C39.8198 42.2026 39.0723 42.4515 38.4494 42.4515C37.452 42.4515 37.2022 42.1402 36.4552 41.2075L30.3477 31.6267V40.8964L32.2803 41.3322C32.2803 41.3322 32.2803 42.4515 30.7211 42.4515L26.4227 42.7007C26.2978 42.4515 26.4227 41.8299 26.8586 41.7053L27.9803 41.3947V29.1383L26.4229 29.0137C26.298 28.4532 26.609 27.6451 27.4821 27.5824L32.0934 27.2718L38.4494 36.9773V28.3915L36.8289 28.2057C36.7044 27.5204 37.2022 27.0229 37.8255 26.9612L42.1262 26.711Z" fill="#F9F8F1"/>
</svg>
