<svg width="64" height="64" viewBox="0 0 64 64" fill="none" xmlns="http://www.w3.org/2000/svg">
<path d="M51.0136 36.8653C48.0536 33.7187 39.867 34.9987 37.947 35.3187C35.8062 33.178 33.9671 30.7558 32.4803 28.1187C33.5736 25.0837 34.2029 21.9013 34.347 18.6787C34.347 15.7987 33.2003 12.7053 30.0003 12.7053C29.4553 12.72 28.9228 12.8719 28.452 13.1469C27.9813 13.4219 27.5874 13.8111 27.307 14.2787C25.947 16.6253 26.4803 21.4787 28.667 26.3853C27.387 29.9853 25.547 35.1853 23.1203 39.3987C19.8403 40.7053 12.8803 43.9053 12.2136 47.452C12.1124 47.9659 12.1478 48.4975 12.3163 48.9935C12.4848 49.4895 12.7804 49.9326 13.1736 50.2787C13.9516 50.9654 14.9632 51.328 16.0003 51.292C20.187 51.292 24.3736 45.4787 27.2003 40.492C30.4571 39.3807 33.7903 38.5073 37.1736 37.8787C41.6003 41.7453 45.547 42.332 47.547 42.332C50.267 42.332 51.2803 41.1587 51.6536 40.172C51.8504 39.6137 51.8949 39.013 51.7824 38.4318C51.6699 37.8506 51.4045 37.3099 51.0136 36.8653ZM48.1336 38.892C48.0003 39.6653 47.0136 40.4387 45.1736 40.0387C43.0422 39.5042 41.0565 38.5022 39.3603 37.1053C40.8003 36.8653 44.1603 36.5453 46.5336 36.9987C47.387 37.1587 48.3736 37.6387 48.1336 38.892ZM29.0403 15.292C29.1277 15.1185 29.2608 14.9721 29.4253 14.8687C29.5898 14.7653 29.7794 14.7088 29.9736 14.7053C30.987 14.7053 31.2003 15.932 31.2003 16.9453C31.0343 19.3624 30.5869 21.7519 29.867 24.0653C28.1603 19.532 28.4003 16.3853 29.0403 15.292ZM28.8003 37.452C29.7883 35.383 30.6695 33.2647 31.4403 31.1053C32.5059 32.7921 33.7195 34.3806 35.067 35.852C32.9508 36.2723 30.8589 36.8064 28.8003 37.452V37.452ZM22.107 42.0387C19.4136 46.3587 16.7736 49.0787 15.227 49.0787C14.9751 49.0807 14.7303 48.9959 14.5336 48.8387C14.3899 48.7226 14.2814 48.5688 14.2202 48.3946C14.1589 48.2203 14.1474 48.0324 14.187 47.852C14.4803 46.3053 17.547 44.0653 22.107 42.0387Z" fill="#F9F8F1"/>
</svg>
