<svg width="64" height="64" viewBox="0 0 64 64" fill="none" xmlns="http://www.w3.org/2000/svg">
<g clip-path="url(#clip0_333_1546)">
<path d="M48 46.4V17.6C48 16.7147 47.2853 16 46.4 16H17.6C16.7147 16 16 16.7147 16 17.6V46.4C16 47.2853 16.7147 48 17.6 48H46.4C47.2853 48 48 47.2853 48 46.4ZM27.736 39.1067H24.8933V24.8933H27.7373V39.1067H27.736ZM39.1147 39.1067H30.5787V36.2627H39.1147V39.1067ZM39.1147 33.4213H30.5787V30.5773H39.1147V33.4213ZM39.1147 27.7293H30.5787V24.8853H39.1147V27.7293Z" fill="#F9F8F1"/>
<path d="M16.1128 41.6572V41.6545C16.1114 41.6492 16.1088 41.6425 16.1074 41.6372L16.1128 41.6572Z" fill="#F9F8F1"/>
</g>
<defs>
<clipPath id="clip0_333_1546">
<rect width="32" height="32" fill="white" transform="translate(16 16)"/>
</clipPath>
</defs>
</svg>
