<svg width="80" height="80" viewBox="0 0 80 80" fill="none" xmlns="http://www.w3.org/2000/svg">
<path d="M40.0928 49.7897H28.6219L26.2784 57.0361C26.2522 57.1682 26.1776 57.2857 26.0692 57.3655C25.9608 57.4454 25.8264 57.4819 25.6925 57.4678H19.8954C19.5562 57.4678 19.4637 57.2828 19.5562 56.9127L29.4853 28.3281C29.5778 28.0198 29.6703 27.6806 29.7937 27.3105C29.9178 26.6497 29.9797 25.9786 29.9787 25.3062C29.9694 25.229 29.9897 25.1511 30.0355 25.0882C30.0812 25.0253 30.149 24.982 30.2254 24.967H38.2118C38.4585 24.967 38.5818 25.0595 38.6127 25.2137L49.8677 56.9744C49.9602 57.3136 49.8677 57.4678 49.5593 57.4678H43.1147C43.0057 57.4783 42.8965 57.45 42.8062 57.388C42.716 57.326 42.6505 57.2341 42.6213 57.1286L40.0928 49.7897ZM30.4104 43.5301H38.2426C38.0576 42.8825 37.8109 42.1116 37.5334 41.3099C37.2559 40.5082 36.9784 39.5831 36.7008 38.6581C36.4233 37.733 36.115 36.7771 35.8066 35.8212C35.4983 34.8653 35.2207 33.971 34.974 33.0768C34.7274 32.1826 34.5115 31.4117 34.2957 30.6716H34.234C33.9569 32.0156 33.6069 33.3435 33.1856 34.6494C32.723 36.1295 32.2605 37.6713 31.7671 39.2131C31.3354 40.7857 30.8729 42.235 30.4104 43.5301V43.5301Z" fill="#F9F8F1"/>
<path d="M56.591 30.2399C56.0848 30.2509 55.5815 30.1612 55.1104 29.9759C54.6392 29.7907 54.2096 29.5135 53.8466 29.1606C53.1401 28.3882 52.7639 27.37 52.7982 26.3237C52.78 25.814 52.8694 25.3061 53.0607 24.8332C53.252 24.3604 53.5408 23.9331 53.9083 23.5794C54.6495 22.8788 55.6329 22.4921 56.6527 22.5001C57.8553 22.5001 58.7803 22.8701 59.4587 23.5794C60.1418 24.3271 60.5068 25.3114 60.4763 26.3237C60.4951 26.8447 60.4093 27.3642 60.2239 27.8515C60.0385 28.3387 59.7574 28.7839 59.397 29.1606C59.0337 29.5307 58.5952 29.8186 58.1111 30.0047C57.6271 30.1909 57.1087 30.2711 56.591 30.2399V30.2399ZM53.1374 57.0052V33.2618C53.1374 32.9534 53.2607 32.8301 53.5383 32.8301H59.6437C59.9212 32.8301 60.0446 32.9842 60.0446 33.2618V57.0052C60.0446 57.3444 59.9212 57.4985 59.6437 57.4985H53.5999C53.5351 57.5039 53.47 57.4945 53.4093 57.4711C53.3486 57.4478 53.294 57.411 53.2495 57.3636C53.205 57.3161 53.1719 57.2593 53.1525 57.1972C53.133 57.1351 53.1279 57.0695 53.1374 57.0052V57.0052Z" fill="#F9F8F1"/>
</svg>
