<svg width="64" height="64" viewBox="0 0 64 64" fill="none" xmlns="http://www.w3.org/2000/svg">
<path d="M26.667 38.5941H17.3728L15.474 44.4904C15.4528 44.5974 15.3923 44.6926 15.3045 44.7573C15.2166 44.8221 15.1078 44.8516 14.9993 44.8402H10.3022C10.0274 44.8402 9.95242 44.6903 10.0274 44.3904L18.0724 21.3298C18.1473 21.08 18.2223 20.8551 18.3222 20.5553C18.4228 20.0198 18.4729 19.4761 18.4721 18.9313C18.4646 18.8687 18.4811 18.8057 18.5181 18.7547C18.5552 18.7037 18.6101 18.6687 18.672 18.6565H25.1429C25.3178 18.6565 25.4428 18.7314 25.4677 18.8564L34.5871 44.4654C34.662 44.7402 34.5871 44.8652 34.3372 44.8652H29.1155C29.0272 44.8737 28.9387 44.8508 28.8656 44.8005C28.7925 44.7502 28.7394 44.6758 28.7157 44.5903L26.667 38.5941ZM18.8219 33.6222H25.1679C25.018 33.0975 24.8181 32.4729 24.5933 31.8233C24.3684 31.1737 24.1436 30.4242 23.9187 29.6746C23.6939 28.9251 23.444 28.1506 23.1942 27.3761C22.9443 26.6015 22.7195 25.877 22.5196 25.1524C22.3197 24.4279 22.1448 23.8033 21.9699 23.2037H21.92C21.6954 24.2926 21.4118 25.3685 21.0705 26.4266C20.6957 27.6259 20.321 28.8751 19.9212 30.1243C19.5964 31.3985 19.1967 32.5728 18.8219 33.6222Z" fill="#F9F8F1"/>
<path d="M49.4024 36.2954H41.4824C41.5769 37.0838 41.8411 37.8425 42.2569 38.519C42.6984 39.1924 43.3346 39.7153 44.0808 40.0181C45.0906 40.45 46.1806 40.6628 47.2788 40.6427C48.1512 40.6267 49.0206 40.5347 49.8772 40.3679C50.6391 40.2681 51.3859 40.0751 52.1008 39.7932C52.2257 39.6933 52.3006 39.7432 52.3006 39.9931V43.8157C52.2962 43.9173 52.2795 44.018 52.2507 44.1155C52.2055 44.1856 52.1459 44.2453 52.0758 44.2904C51.2767 44.6413 50.4376 44.893 49.5773 45.0399C48.4086 45.2647 47.2194 45.3652 46.0295 45.3398C44.1307 45.3398 42.5317 45.0399 41.2325 44.4653C40.01 43.9347 38.931 43.1212 38.0845 42.0918C37.2935 41.1292 36.7069 40.0156 36.3606 38.8188C35.6285 36.3263 35.6633 33.6711 36.4605 31.1986C36.8589 29.9476 37.4952 28.7854 38.3344 27.7757C39.1606 26.7773 40.1915 25.9679 41.3575 25.4022C42.5317 24.8275 43.9309 24.6277 45.5299 24.6277C46.8621 24.5968 48.1846 24.8613 49.4024 25.4022C50.426 25.8459 51.3263 26.5319 52.0258 27.4009C52.6899 28.2543 53.1975 29.2186 53.5249 30.2492C53.8426 31.2339 54.0028 32.2626 53.9996 33.2973C53.9996 33.8969 53.9746 34.4216 53.9496 34.8963C53.9246 35.371 53.8747 35.7208 53.8497 35.9456C53.8387 36.0322 53.7976 36.1121 53.7337 36.1715C53.6698 36.2308 53.587 36.2658 53.4999 36.2704C53.35 36.2704 53.0752 36.2954 52.6754 36.3204C52.1944 36.375 51.7104 36.4 51.2263 36.3953C50.6517 36.3953 50.052 36.2954 49.4024 36.2954ZM41.4824 32.6477H46.7541C47.4037 32.6477 47.8784 32.6477 48.1782 32.6227C48.3835 32.6056 48.5812 32.5368 48.7529 32.4228V32.173C48.7539 31.8587 48.7032 31.5464 48.6029 31.2485C48.3842 30.5649 47.9491 29.9709 47.3632 29.5563C46.7773 29.1417 46.0724 28.9289 45.355 28.95C44.6769 28.912 44.0023 29.071 43.4127 29.408C42.823 29.7449 42.3435 30.2453 42.032 30.8488C41.7406 31.4098 41.5543 32.0195 41.4824 32.6477V32.6477Z" fill="#F9F8F1"/>
</svg>
