<svg width="80" height="80" viewBox="0 0 80 80" fill="none" xmlns="http://www.w3.org/2000/svg">
<path d="M41.8123 25.9973L32.9961 40.544L42.4 55.9723C42.4619 56.0787 42.4828 56.2041 42.4588 56.3249C42.4294 56.4425 42.3119 56.3543 42.1356 56.3837H35.4059C34.9357 56.3837 34.6124 56.3543 34.4067 56.0604C33.7896 54.8262 33.1431 53.6213 32.5259 52.387C31.9088 51.1528 31.2329 49.9479 30.5276 48.6842C29.8223 47.4206 29.117 46.1569 28.4117 44.8639H28.3529C27.7358 46.1275 27.0599 47.3912 26.384 48.6548C25.7081 49.9185 25.0322 51.1821 24.3857 52.4164C23.7391 53.6507 23.0339 54.9143 22.3579 56.1192C22.2404 56.4131 22.0053 56.4425 21.682 56.4425H15.2168C15.0993 56.4425 15.0111 56.5012 15.0111 56.3543C14.998 56.2993 14.9965 56.2421 15.0066 56.1865C15.0167 56.1309 15.0383 56.0779 15.0699 56.031L24.2093 41.0435L15.305 25.9679C15.2168 25.8503 15.1875 25.7328 15.2462 25.674C15.2821 25.6321 15.3275 25.5995 15.3787 25.5791C15.4299 25.5586 15.4853 25.5508 15.5401 25.5565H22.211C22.35 25.5595 22.4881 25.5792 22.6224 25.6152C22.7402 25.6786 22.8409 25.7693 22.9163 25.8797C23.4747 27.1434 24.1212 28.407 24.7971 29.6707C25.473 30.9343 26.1783 32.1686 26.913 33.4029C27.6476 34.6371 28.2648 35.8714 28.8819 37.135H28.9407C29.5578 35.842 30.2043 34.5784 30.8509 33.3441C31.4974 32.1098 32.1733 30.8756 32.8492 29.6413C33.5251 28.407 34.1716 27.1434 34.8181 25.9385C34.8404 25.8228 34.9029 25.7187 34.9945 25.6446C35.1108 25.5804 35.2462 25.5596 35.3765 25.5859H41.5772C41.6119 25.5781 41.6479 25.5772 41.6829 25.5833C41.718 25.5895 41.7515 25.6024 41.7816 25.6216C41.8116 25.6407 41.8376 25.6655 41.858 25.6947C41.8784 25.7239 41.8928 25.7568 41.9005 25.7916C41.9298 25.821 41.8711 25.9385 41.8123 25.9973V25.9973Z" fill="#F9F8F1"/>
<path d="M55.3898 57.0007C53.2114 57.0365 51.0527 56.5847 49.0715 55.6783C47.2282 54.8164 45.6834 53.425 44.634 51.6816C43.5467 49.889 43.0177 47.6556 43.0177 44.9814C42.988 42.8066 43.5464 40.6642 44.634 38.7807C45.7493 36.8664 47.3645 35.2917 49.3066 34.2256C51.3637 33.0795 53.8322 32.5212 56.7416 32.5212C56.9477 32.5188 57.1538 32.5287 57.3587 32.5506C57.6232 32.5799 57.9171 32.5799 58.2697 32.6093V23.323C58.2697 23.1173 58.3579 22.9997 58.5636 22.9997H64.5292C64.5951 22.9908 64.6619 23.007 64.7163 23.0451C64.7708 23.0832 64.8089 23.1405 64.8231 23.2054V51.2408C64.8231 51.7698 64.8525 52.3576 64.8818 53.0041C64.9112 53.6506 64.97 54.209 64.9994 54.7085C65.0057 54.8078 64.9807 54.9065 64.928 54.9908C64.8753 55.0752 64.7975 55.1409 64.7055 55.1787C63.1663 55.8256 61.5596 56.2988 59.9154 56.5893C58.4218 56.8587 56.9074 56.9963 55.3898 57.0007V57.0007ZM58.2697 51.1233V38.1929C58.008 38.1298 57.7432 38.0807 57.4763 38.046C57.153 38.0166 56.8297 37.9872 56.5065 37.9872C55.3546 37.9742 54.2161 38.2362 53.1857 38.7513C52.1815 39.2516 51.3217 40.0002 50.6878 40.9259C50.0413 41.8663 49.718 43.13 49.718 44.6581C49.6924 45.6895 49.8619 46.7165 50.2176 47.685C50.5018 48.4682 50.9531 49.1802 51.54 49.7715C52.1066 50.3122 52.7905 50.7145 53.5384 50.947C54.3255 51.2048 55.1492 51.3338 55.9775 51.329C56.4183 51.329 56.8297 51.2996 57.2118 51.2702C57.5708 51.2958 57.9312 51.2458 58.2697 51.1233V51.1233Z" fill="#F9F8F1"/>
</svg>
