<svg width="64" height="64" viewBox="0 0 64 64" fill="none" xmlns="http://www.w3.org/2000/svg">
<path d="M32.0001 16C28.8356 16 25.7421 16.9383 23.1109 18.6965C20.4797 20.4546 18.4289 22.9534 17.2179 25.8771C16.0069 28.8007 15.6901 32.0178 16.3075 35.1215C16.9249 38.2253 18.4487 41.0762 20.6864 43.3138C22.9241 45.5515 25.7751 47.0753 28.8788 47.6926C31.9826 48.3099 35.1997 47.993 38.1233 46.7819C41.0469 45.5708 43.5457 43.52 45.3038 40.8887C47.0618 38.2575 48.0001 35.164 48 31.9995C47.9952 27.7576 46.3079 23.6908 43.3084 20.6913C40.3089 17.6919 36.2421 16.0047 32.0001 16ZM17.6151 31.9995C17.6135 29.9821 18.038 27.9871 18.8606 26.1451L25.7227 44.9458C23.292 43.7668 21.2424 41.9272 19.8086 39.6376C18.3748 37.348 17.6146 34.701 17.6151 31.9995ZM32.0001 46.3857C30.6244 46.3857 29.2558 46.1883 27.9362 45.7995L32.2528 33.2577L36.674 45.3718C36.7028 45.4406 36.7373 45.5069 36.7771 45.57C35.2425 46.1107 33.6272 46.3865 32.0001 46.3857ZM33.9825 25.2549C34.8485 25.2094 35.629 25.1183 35.629 25.1183C35.7845 25.1039 35.9282 25.0289 36.0288 24.9095C36.1295 24.7902 36.1792 24.636 36.1672 24.4802C36.1551 24.3245 36.0823 24.1798 35.9644 24.0774C35.8465 23.9749 35.6931 23.9229 35.5372 23.9327C35.5372 23.9327 33.2071 24.1156 31.7029 24.1156C30.2896 24.1156 27.9144 23.9327 27.9144 23.9327C27.7588 23.9234 27.6057 23.9756 27.4882 24.0781C27.3707 24.1806 27.2981 24.3252 27.2862 24.4807C27.2742 24.6361 27.3238 24.7901 27.4243 24.9093C27.5247 25.0286 27.668 25.1036 27.8232 25.1183C27.8232 25.1183 28.5568 25.2094 29.332 25.2549L31.5732 31.3956L28.4244 40.8369L23.1864 25.2549C24.053 25.2094 24.8326 25.1183 24.8326 25.1183C24.988 25.1038 25.1315 25.0287 25.232 24.9094C25.3326 24.79 25.3822 24.6359 25.3701 24.4803C25.358 24.3246 25.2853 24.18 25.1675 24.0776C25.0497 23.9751 24.8964 23.9231 24.7406 23.9327C24.7406 23.9327 22.4112 24.1156 20.9069 24.1156C20.637 24.1156 20.3186 24.109 19.9811 24.0981C21.1248 22.3576 22.6329 20.8862 24.4011 19.7857C26.1694 18.6853 28.1555 17.982 30.2223 17.7246C32.289 17.4672 34.387 17.6617 36.3711 18.2948C38.3553 18.9279 40.1782 19.9844 41.7139 21.3913C41.652 21.3875 41.5915 21.3797 41.5278 21.3797C40.8694 21.3994 40.2455 21.679 39.7928 22.1575C39.3401 22.6359 39.0953 23.2742 39.1121 23.9327C39.2629 25.1662 39.7519 26.3338 40.5251 27.3066C41.2811 28.4933 41.6918 29.867 41.7111 31.2739C41.5616 32.8669 41.1933 34.4317 40.6165 35.9242L39.1814 40.7183L33.9825 25.2549ZM39.2321 44.4333L43.6258 31.7299C44.3232 30.1003 44.6948 28.3499 44.7198 26.5775C44.7207 26.0828 44.6884 25.5886 44.6231 25.0982C46.4208 28.3882 46.8633 32.2499 45.8564 35.8612C44.8495 39.4725 42.4727 42.5482 39.2321 44.4333Z" fill="#F9F8F1"/>
</svg>
