<svg width="64" height="64" viewBox="0 0 64 64" fill="none" xmlns="http://www.w3.org/2000/svg">
<path d="M14 45.7708V18.3308C14 18.1441 14.0784 18.0374 14.2612 18.0374C14.7054 18.0374 15.1234 18.0374 15.7242 18.0108C16.3251 17.9841 17.0044 17.9841 17.7097 17.9574C18.4151 17.9308 19.1727 17.9308 19.9826 17.9041C20.7925 17.8774 21.5762 17.8774 22.3599 17.8774C24.5022 17.8774 26.2787 18.1441 27.7417 18.7041C29.0531 19.1587 30.249 19.9057 31.2424 20.8908C32.0842 21.7529 32.7346 22.7896 33.1495 23.9308C33.545 25.0421 33.7483 26.2151 33.7504 27.3974C33.7504 29.6908 33.2279 31.5841 32.1829 33.0774C31.133 34.5687 29.6673 35.7025 27.9768 36.3308C26.2003 36.9974 24.2409 37.2374 22.0987 37.2374C21.4717 37.2374 21.0537 37.2374 20.7925 37.2108C20.5312 37.1841 20.1655 37.1841 19.6691 37.1841V45.7441C19.6749 45.788 19.6721 45.8326 19.6607 45.8753C19.6493 45.9181 19.6296 45.958 19.6028 45.9929C19.576 46.0277 19.5426 46.0566 19.5046 46.078C19.4667 46.0994 19.4249 46.1128 19.3817 46.1174H14.3135C14.1045 46.1174 14 46.0108 14 45.7708ZM19.6952 23.1841V32.1441C20.061 32.1708 20.4006 32.1974 20.7141 32.1974H22.0987C23.1186 32.1987 24.1323 32.0367 25.103 31.7174C25.9359 31.4674 26.6799 30.9766 27.2453 30.3041C27.7939 29.6374 28.0552 28.7308 28.0552 27.5574C28.0797 26.7241 27.8713 25.9009 27.4543 25.1841C27.0187 24.4917 26.378 23.9592 25.6255 23.6641C24.6448 23.272 23.5954 23.0905 22.5428 23.1308C21.8636 23.1308 21.2627 23.1308 20.7663 23.1574C20.4092 23.1336 20.0508 23.1425 19.6952 23.1841V23.1841Z" fill="#F9F8F1"/>
<path d="M37.4087 24.7307H41.9805C42.1044 24.7338 42.2241 24.7767 42.3226 24.8533C42.4211 24.9299 42.4934 25.0364 42.5291 25.1574C42.6089 25.372 42.6615 25.596 42.6859 25.8241C42.7381 26.0907 42.7904 26.3841 42.8165 26.6507C42.8426 26.9174 42.8688 27.2641 42.8688 27.6107C43.6532 26.676 44.6011 25.8983 45.6641 25.3174C46.8785 24.6289 48.246 24.2707 49.6351 24.2774C49.6781 24.2715 49.7218 24.2744 49.7637 24.286C49.8055 24.2976 49.8447 24.3177 49.8788 24.3451C49.9129 24.3724 49.9413 24.4065 49.9623 24.4453C49.9832 24.484 49.9963 24.5267 50.0008 24.5707V29.8774C50.0008 30.0907 49.8702 30.1707 49.5828 30.1707C48.6351 30.1391 47.6873 30.2287 46.7614 30.4374C46.0067 30.5964 45.271 30.8378 44.5669 31.1574C44.0615 31.3901 43.608 31.7258 43.2345 32.1441V45.7441C43.2345 46.0107 43.13 46.1174 42.8949 46.1174H37.7483C37.7001 46.1257 37.6508 46.1239 37.6033 46.1121C37.5558 46.1004 37.5112 46.0789 37.4721 46.0489C37.433 46.019 37.4002 45.9813 37.3759 45.938C37.3515 45.8948 37.336 45.847 37.3303 45.7974V30.9174C37.3303 30.2774 37.3303 29.6107 37.3042 28.9174C37.2781 28.2241 37.2781 27.5307 37.2519 26.8374C37.2519 26.2241 37.1997 25.6374 37.1474 25.0241C37.1405 24.9926 37.1397 24.96 37.1452 24.9281C37.1506 24.8963 37.1622 24.8659 37.1792 24.8386C37.1962 24.8114 37.2183 24.7878 37.2442 24.7693C37.2701 24.7508 37.2994 24.7377 37.3303 24.7307C37.3303 24.7041 37.3826 24.7041 37.4087 24.7307V24.7307Z" fill="#F9F8F1"/>
</svg>
