<svg width="34" height="90" viewBox="0 0 34 90" fill="none" xmlns="http://www.w3.org/2000/svg">
<path d="M19.4887 37.5136L2.03835 26.8765C1.15913 26.3406 -1.11442e-06 26.9361 -1.06924e-06 27.9237L-5.71307e-08 50.0489C-1.10307e-08 51.0567 1.20148 51.6481 2.07741 51.0714L19.5278 39.5833C20.2979 39.0763 20.2775 37.9944 19.4887 37.5136Z" fill="#062542"/>
<path d="M17.3051 77.7052L21.3559 69.9831C21.56 69.594 21.3332 69.0811 20.9571 69.0811L12.5315 69.0811C12.1477 69.0811 11.9225 69.6127 12.1421 70.0004L16.517 77.7225C16.71 78.0633 17.122 78.0543 17.3051 77.7052Z" fill="#1770DC"/>
<path d="M1.1994 63.6094L32.2913 63.6094C32.9524 63.6094 33.4884 63.1342 33.4884 62.548L33.4884 42.1017C33.4884 41.2297 32.3681 40.7297 31.5782 41.2492L0.486284 61.6954C-0.440339 62.3048 0.0457347 63.6094 1.1994 63.6094Z" fill="#3AC7D1"/>
<path d="M17.4778 83.3119L31.1442 69.6673C31.814 68.7879 33.4884 69.081 33.4884 69.9604L33.4884 88.6039C33.4884 89.1651 32.8581 89.6001 32.2112 89.6001L1.17131 89.6001C0.524416 89.6001 -2.0809e-08 89.1452 -4.64782e-08 88.5841L-8.92064e-07 70.0991C-9.32743e-07 69.2098 1.22383 68.7496 1.97204 69.3575L15.7395 83.4444C16.2488 83.8581 17.0595 83.7963 17.4778 83.3119Z" fill="#1770DC"/>
<path d="M0.748603 19.0619L31.8668 35.4541C32.6447 35.8639 33.4884 35.1017 33.4884 33.9891L33.4884 1.57727C33.4884 0.469927 32.652 -0.292029 31.8754 0.107775L0.757218 16.1274C-0.248186 16.645 -0.253732 18.5339 0.748603 19.0619Z" fill="#FADA6E"/>
</svg>
