<svg width="91" height="32" viewBox="0 0 91 32" fill="none" xmlns="http://www.w3.org/2000/svg">
<path d="M52.4852 18.6225L63.2037 1.94776C63.7437 1.10762 63.1437 0 62.1485 0H39.8539C38.8384 0 38.2426 1.14808 38.8236 1.98508L50.3996 18.6599C50.9105 19.3958 52.0007 19.3762 52.4852 18.6225Z" fill="#283D60"/>
<path d="M11.9858 16.5355L19.7671 20.4062C20.1592 20.6012 20.676 20.3845 20.676 20.0251L20.676 11.974C20.676 11.6073 20.1403 11.3921 19.7497 11.6019L11.9684 15.7823C11.625 15.9668 11.6341 16.3605 11.9858 16.5355Z" fill="#1770DC"/>
<path d="M26.1897 1.14609V30.8561C26.1897 31.4879 26.6685 32 27.2592 32H47.862C48.7407 32 49.2445 30.9295 48.721 30.1747L28.1183 0.464672C27.5043 -0.420768 26.1897 0.043702 26.1897 1.14609Z" fill="#3AC7D1"/>
<path d="M6.33633 16.701L20.0854 29.76C20.9715 30.4 20.6761 32 19.79 32H1.0038C0.438363 32 0 31.3977 0 30.7795V1.11926C0 0.501108 0.458379 0 1.02382 0H19.6503C20.5463 0 21.0101 1.16944 20.3975 1.8844L6.20284 15.04C5.7859 15.5266 5.84816 16.3013 6.33633 16.701Z" fill="#1770DC"/>
<path d="M71.0778 0.715332L54.5602 30.4505C54.1473 31.1938 54.9153 32 56.0364 32H88.6963C89.8121 32 90.5799 31.2008 90.177 30.4587L74.0348 0.723565C73.5132 -0.237154 71.6099 -0.242454 71.0778 0.715332Z" fill="#FADA6E"/>
</svg>
